name D:\school\WTK\thesis\model\3dpredictsim\Results\MidTarsalJoint\Fal_s1_aCst_PF_Natali2010_ls150_MT_nl_signed_lin_MTP_T5_ig24_500_50.mot
datacolumns 128
datarows 4
range 1.13289327 1.16688007
endheader
time	pelvis_tilt	pelvis_list	pelvis_rotation	pelvis_tx	pelvis_ty	pelvis_tz	hip_flexion_l	hip_adduction_l	hip_rotation_l	hip_flexion_r	hip_adduction_r	hip_rotation_r	knee_angle_l	knee_angle_r	ankle_angle_l	ankle_angle_r	subtalar_angle_l	subtalar_angle_r	mtj_angle_l	mtj_angle_r	mtp_angle_l	mtp_angle_r	lumbar_extension	lumbar_bending	lumbar_rotation	arm_flex_l	arm_add_l	arm_rot_l	arm_flex_r	arm_add_r	arm_rot_r	elbow_flex_l	elbow_flex_r	pro_sup_l	pro_sup_r	glut_med1_l/activation	glut_med2_l/activation	glut_med3_l/activation	glut_min1_l/activation	glut_min2_l/activation	glut_min3_l/activation	semimem_l/activation	semiten_l/activation	bifemlh_l/activation	bifemsh_l/activation	sar_l/activation	add_long_l/activation	add_brev_l/activation	add_mag1_l/activation	add_mag2_l/activation	add_mag3_l/activation	tfl_l/activation	pect_l/activation	grac_l/activation	glut_max1_l/activation	glut_max2_l/activation	glut_max3_l/activation	iliacus_l/activation	psoas_l/activation	quad_fem_l/activation	gem_l/activation	peri_l/activation	rect_fem_l/activation	vas_med_l/activation	vas_int_l/activation	vas_lat_l/activation	med_gas_l/activation	lat_gas_l/activation	soleus_l/activation	tib_post_l/activation	flex_dig_l/activation	flex_hal_l/activation	tib_ant_l/activation	per_brev_l/activation	per_long_l/activation	per_tert_l/activation	ext_dig_l/activation	ext_hal_l/activation	ercspn_l/activation	intobl_l/activation	extobl_l/activation	glut_med1_r/activation	glut_med2_r/activation	glut_med3_r/activation	glut_min1_r/activation	glut_min2_r/activation	glut_min3_r/activation	semimem_r/activation	semiten_r/activation	bifemlh_r/activation	bifemsh_r/activation	sar_r/activation	add_long_r/activation	add_brev_r/activation	add_mag1_r/activation	add_mag2_r/activation	add_mag3_r/activation	tfl_r/activation	pect_r/activation	grac_r/activation	glut_max1_r/activation	glut_max2_r/activation	glut_max3_r/activation	iliacus_r/activation	psoas_r/activation	quad_fem_r/activation	gem_r/activation	peri_r/activation	rect_fem_r/activation	vas_med_r/activation	vas_int_r/activation	vas_lat_r/activation	med_gas_r/activation	lat_gas_r/activation	soleus_r/activation	tib_post_r/activation	flex_dig_r/activation	flex_hal_r/activation	tib_ant_r/activation	per_brev_r/activation	per_long_r/activation	per_tert_r/activation	ext_dig_r/activation	ext_hal_r/activation	ercspn_r/activation	intobl_r/activation	extobl_r/activation	
          1.13289327	         -2.93016868	         -2.03294142	          5.31047737	          1.41611659	          0.92020825	         -0.00270275	        -16.67298013	         -0.62537971	          6.08530722	         28.77034902	          3.37405860	         -3.06655282	         -8.22119849	        -10.06079135	         -1.95046055	          5.72840382	          6.93479277	         -4.30450417	          2.63024048	         -0.60712707	         17.51598918	          1.78047683	         -2.24385495	          0.35145787	         -1.96586779	          5.43669528	        -13.45587707	         17.53680545	         -4.31910506	        -13.45248221	          8.18403142	         33.84372754	         15.48408834	         86.51662706	         86.51662706	          0.25838589	          0.09986768	          0.06899339	          0.28912712	          0.18018862	          0.09989968	          0.05000572	          0.05000067	          0.05000044	          0.05508371	          0.09989766	          0.10287649	          0.10291279	          0.05000425	          0.05000573	          0.05000187	          0.30486252	          0.09985304	          0.05000819	          0.05000310	          0.05000190	          0.05000203	          0.40278940	          0.62771345	          0.05000039	          0.05000119	          0.05307875	          0.24843397	          0.05000150	          0.05000144	          0.05000157	          0.26508654	          0.36374997	          0.32711769	          0.28567186	          0.26790120	          0.34981375	          0.05000010	          0.05943895	          0.10593261	          0.05000055	          0.05000015	          0.05000057	          0.05000010	          0.05000043	          0.06199268	          0.05944075	          0.05944074	          0.05000034	          0.05944090	          0.05944086	          0.05647232	          0.15492982	          0.08479562	          0.20388601	          0.05943590	          0.05000063	          0.16786660	          0.30025259	          0.24507595	          0.23678596	          0.11016273	          0.05000048	          0.05007636	          0.14915021	          0.05000137	          0.05000097	          0.14606449	          0.05944179	          0.05642012	          0.31174382	          0.30478836	          0.13453755	          0.05000098	          0.11646916	          0.11176554	          0.10377171	          0.06900743	          0.07307798	          0.06216913	          0.05000022	          0.05944377	          0.05000145	          0.51047820	          0.24372340	          0.16441957	          0.22819504	          0.47530861	          0.23532884	          0.05944061	          0.11271955	          0.09180666	
          1.14422220	         -2.92653551	         -2.11241320	          5.57166715	          1.43326476	          0.91941907	         -0.00250053	        -16.49145715	         -0.91758180	          5.88235516	         28.12830419	          3.75687310	         -2.83740362	        -10.22545204	        -10.51550746	         -2.62349312	          5.14903645	          7.90046716	         -4.68612626	          1.98325080	         -0.74147324	         19.10293415	          1.72621598	         -2.04127478	          0.54642076	         -2.03329088	          5.12073444	        -13.46622438	         17.81066318	         -5.22653807	        -13.44985055	          7.88390042	         35.02616961	         15.16975537	         86.51662706	         86.51662706	          0.21734747	          0.08400612	          0.05803561	          0.24320630	          0.15157000	          0.08403304	          0.05000607	          0.05000149	          0.05000235	          0.05000021	          0.08403148	          0.19006557	          0.08657583	          0.06280453	          0.05944246	          0.05944232	          0.25644250	          0.08399597	          0.05000429	          0.05003981	          0.05008943	          0.05943885	          0.33881583	          0.57117719	          0.05944057	          0.05942342	          0.05000064	          0.20897617	          0.13115186	          0.15345655	          0.12293183	          0.22298376	          0.30597684	          0.27516273	          0.24029988	          0.22535198	          0.29425461	          0.05000003	          0.05000025	          0.13071555	          0.05000016	          0.05000005	          0.05000019	          0.06922212	          0.07066376	          0.05944119	          0.05000003	          0.05000008	          0.10228089	          0.05000014	          0.05000014	          0.05000013	          0.13032300	          0.07132798	          0.17150355	          0.05000093	          0.05945086	          0.14120516	          0.33867688	          0.34050666	          0.22916945	          0.11703695	          0.05000063	          0.08408123	          0.15719964	          0.05000353	          0.09833680	          0.14156282	          0.05000109	          0.05023830	          0.57194292	          0.25637995	          0.11316958	          0.05944146	          0.10441280	          0.12310756	          0.08749478	          0.06773245	          0.07066370	          0.06250688	          0.05944099	          0.05000315	          0.05943789	          0.49183218	          0.27307579	          0.21021560	          0.19195211	          0.44014941	          0.19795252	          0.05000002	          0.09481670	          0.07722533	
          1.15555113	         -2.91775516	         -2.19696576	          5.80109563	          1.45071485	          0.91861534	         -0.00231894	        -16.25273583	         -1.21113877	          5.66645538	         27.35307576	          4.01836555	         -2.58122732	        -12.31627694	        -11.04332327	         -3.47271410	          4.67074300	          8.81322779	         -5.07870446	          1.27292988	         -0.96025123	         20.66291071	          1.77121984	         -1.81675272	          0.75255589	         -2.08996125	          4.71981286	        -13.47446435	         17.99384146	         -6.15774628	        -13.45633633	          7.63848898	         36.20529107	         14.89749237	         86.51662706	         86.51662706	          0.32510663	          0.07066385	          0.05000040	          0.30811817	          0.12749691	          0.07068650	          0.05000630	          0.05000044	          0.05000031	          0.05000151	          0.07068543	          0.15987826	          0.07282584	          0.05282982	          0.05000264	          0.05000172	          0.25369912	          0.07065758	          0.05000461	          0.05000278	          0.05000147	          0.05000105	          0.28500297	          0.52902759	          0.05000047	          0.05000139	          0.05000251	          0.17578531	          0.11032162	          0.12908374	          0.10340714	          0.18756801	          0.25737960	          0.23145957	          0.20213395	          0.18956034	          0.24751935	          0.05498417	          0.10523097	          0.13919511	          0.05000076	          0.07674648	          0.05000178	          0.06582179	          0.05944048	          0.05000039	          0.24514008	          0.25910137	          0.27366016	          0.44856863	          0.27685733	          0.20219488	          0.11069544	          0.06000200	          0.14426437	          0.05944142	          0.05000914	          0.11877809	          0.28488607	          0.28642535	          0.19277172	          0.12316112	          0.05000103	          0.07072761	          0.13223256	          0.12388734	          0.11621665	          0.11907926	          0.05321341	          0.05000112	          0.48110324	          0.21566022	          0.22380424	          0.05000068	          0.08782961	          0.10355514	          0.07359857	          0.05697484	          0.05944057	          0.05349058	          0.05000038	          0.05000074	          0.05000106	          0.55787774	          0.35163538	          0.17682831	          0.36214599	          0.51000164	          0.16651479	          0.06658812	          0.11754260	          0.06495992	
          1.16688007	         -2.90573778	         -2.27145719	          5.99325871	          1.46825139	          0.91781066	         -0.00210630	        -15.92461155	         -1.48955166	          5.46901784	         26.52764511	          4.24257103	         -2.33105777	        -14.53970397	        -11.49863622	         -4.40221306	          4.16124351	          9.68511197	         -5.47278041	          0.48504867	         -0.87733644	         22.01306896	          1.82659676	         -1.59360544	          0.95252068	         -2.13717279	          4.27108725	        -13.49187331	         18.11341826	         -7.06420951	        -13.46286077	          7.45199708	         37.36293730	         14.63907450	         86.51662706	         86.51662706	          0.27347135	          0.05944070	          0.05000057	          0.25918127	          0.10724715	          0.05945971	          0.05000222	          0.05000031	          0.05000040	          0.05000013	          0.05945891	          0.17951207	          0.15823595	          0.07065950	          0.06759778	          0.14135343	          0.21340538	          0.05943675	          0.05000092	          0.05001615	          0.05001646	          0.05025092	          0.23973697	          0.45674300	          0.05000131	          0.05000343	          0.05000041	          0.14786596	          0.11872498	          0.11872499	          0.11872495	          0.15777723	          0.21650089	          0.19469764	          0.17002977	          0.15945332	          0.20820684	          0.15206619	          0.12537938	          0.11708772	          0.27704841	          0.18158755	          0.12106610	          0.08047576	          0.05000006	          0.05000008	          0.35174363	          0.34970060	          0.37312142	          0.37732422	          0.23288566	          0.23909456	          0.09387344	          0.08285432	          0.12135152	          0.05000161	          0.05000117	          0.09991303	          0.23963867	          0.24093382	          0.16215746	          0.15549087	          0.05000072	          0.05949494	          0.11123108	          0.22913098	          0.18240503	          0.15664961	          0.05000013	          0.05000017	          0.40469136	          0.18140780	          0.18825910	          0.05000016	          0.13104991	          0.14636541	          0.10676507	          0.05000006	          0.05000014	          0.05000002	          0.05000004	          0.05000024	          0.05000022	          0.62262211	          0.31274173	          0.16448102	          0.60167673	          0.55860661	          0.30236621	          0.08559567	          0.09887373	          0.05464260	
